<svg width="73" height="52" viewBox="0 0 73 52" fill="none" xmlns="http://www.w3.org/2000/svg">
<g id="logos:youtube-icon" clip-path="url(#clip0_1_13694)">
<path id="Vector" d="M71.3875 8.00095C70.9688 6.4545 70.1521 5.04465 69.0186 3.91178C67.8851 2.77892 66.4744 1.96258 64.927 1.54405C59.2621 0 36.4627 0 36.4627 0C36.4627 0 13.6622 0.0467374 7.9973 1.59079C6.4499 2.00934 5.03922 2.82573 3.90572 3.95864C2.77223 5.09156 1.95548 6.50147 1.5368 8.04798C-0.176701 18.1074 -0.8414 33.4356 1.58385 43.0926C2.00257 44.639 2.81934 46.0489 3.95283 47.1818C5.08632 48.3146 6.49699 49.131 8.04435 49.5495C13.7093 51.0935 36.5092 51.0935 36.5092 51.0935C36.5092 51.0935 59.3089 51.0935 64.9735 49.5495C66.5209 49.131 67.9317 48.3147 69.0652 47.1818C70.1988 46.049 71.0156 44.6391 71.4343 43.0926C73.2416 33.0189 73.7985 17.7004 71.3875 8.00124V8.00095Z" fill="#FF0000"/>
<path id="Vector_2" d="M29.2059 36.4952L48.1198 25.5466L29.2059 14.5981V36.4952Z" fill="white"/>
</g>
<defs>
<clipPath id="clip0_1_13694">
<rect width="73" height="51.2973" fill="white"/>
</clipPath>
</defs>
</svg>
